<?xml version="1.0" encoding="UTF-8"?>
<svg width="75px" height="60px" viewBox="0 0 75 60" version="1.1" xmlns="http://www.w3.org/2000/svg" xmlns:xlink="http://www.w3.org/1999/xlink">
    <title>01_Basics/01_logo/0101_01_generali_vertical</title>
    <g id="Symbols" stroke="none" stroke-width="1" fill="none" fill-rule="evenodd">
        <g id="01_Basics/01_logo/0101_01_generali_vertical" fill="#C21B17">
            <path d="M61.0279476,39.8644882 L62.6163462,39.282056 L62.6163462,39.282056 C64.8735443,38.3668055 65.207944,37.7843733 65.0407442,36.2866906 L65.0407442,30.2959598 C66.7127427,34.6225987 68.3847413,37.6179641 71.6451385,37.6179641 C72.0631381,37.6179641 72.5647377,37.5347595 73.0663373,37.4515549 L74.3203362,37.2019412 L73.400737,36.203486 C72.8155375,35.6210539 72.5647377,35.1218263 72.230338,34.5393941 C72.0631381,34.2897804 71.9795382,34.0401666 71.8123383,33.7905528 C71.059939,32.5424839 69.2207406,32.1264609 67.7159419,32.7920977 C67.0471424,31.4608242 66.378343,29.7135277 65.5423437,27.5502082 L65.3751439,27.1341853 C65.207944,26.8013669 65.1243441,26.4685485 64.9571442,26.1357301 L64.9571442,26.0525255 L64.9571442,26.0525255 C64.4555447,24.8876612 63.8703452,23.8060015 63.2851457,22.7243418 C62.6999462,21.7258866 62.1147467,20.8938407 61.4459472,20.1449993 C59.6903488,18.1480891 57.4331507,16.9000202 54.6743531,16.4007926 C52.7515547,16.0679742 51.4139559,15.9847696 49.6583574,15.901565 C49.3239577,15.901565 48.905958,15.901565 48.5715583,15.8183604 C47.8191589,15.7351558 46.2307603,15.6519512 44.6423617,15.4855421 C43.5555626,15.4023375 42.5523635,15.3191329 41.7163642,15.2359283 C41.7999641,14.9863145 41.7999641,14.7367007 41.7999641,14.4870869 C41.7999641,14.1542685 41.7999641,13.8214502 41.7163642,13.5718364 L52.7515547,13.5718364 C55.5939523,13.5718364 57.6839505,12.3237675 58.8543495,9.82762964 C61.696747,9.82762964 63.7031453,8.49635613 64.9571442,6.0834229 L65.3751439,6.0834229 C68.3011414,6.0834229 70.3911396,4.75214939 71.6451385,2.08960237 L72.0631381,1.34076102 L34.7775701,1.34076102 C32.3531722,1.34076102 30.263174,2.92164831 29.4271747,5.41778614 L29.4271747,5.50099074 C28.7583753,3.75369426 27.6715762,2.25601156 26.1667775,1.34076102 C24.0767793,0.0926921075 21.7359813,-0.323330864 19.8967829,0.259101296 C19.3115834,0.425510485 18.642784,0.675124268 18.1411844,1.00794264 C17.7231848,1.34076102 17.0543854,1.75678399 16.6363857,2.33921615 C16.1347861,2.92164831 15.7167865,3.67048966 15.3823868,4.33612642 C15.131587,4.50253561 14.9643872,4.66894479 14.8807872,4.83535398 L14.4627876,5.66739993 L14.4627876,5.75060452 C13.961188,6.91546884 13.2923886,7.74751478 12.790789,8.41315154 C12.2891894,8.9955837 12.2891894,9.57801586 12.2891894,9.91083423 C12.3727894,10.3268572 12.5399892,10.6596756 12.790789,10.9092894 L12.790789,10.9092894 C12.6235892,11.1589031 12.5399892,11.4917215 12.5399892,11.7413353 C12.5399892,12.7397904 13.3759885,13.4886318 14.4627876,13.4886318 C15.2151869,13.4886318 15.8839864,13.1558134 16.5527858,12.6565858 C16.8035856,12.4901767 17.5559849,11.9909491 17.8067847,11.9909491 C18.1411844,11.9909491 18.3919842,12.2405629 18.3919842,12.5733813 C18.3919842,13.4054272 17.3887851,13.8214502 16.6363857,13.8214502 L15.131587,13.9878594 C14.0447879,14.0710639 13.5431884,14.6534961 13.5431884,15.1527237 C13.5431884,15.6519512 13.7939882,15.9847696 13.961188,16.1511788 L14.0447879,16.2343834 L14.4627876,16.5672018 L12.7071891,19.2297488 C11.5367901,18.1480891 10.1991912,17.5656569 9.02879225,17.4824523 C8.27639289,17.4824523 7.60759347,17.6488615 7.1059939,18.1480891 C6.93879404,18.3144983 6.85519411,18.3977029 6.77159419,18.564112 L6.77159419,18.564112 C5.51759526,18.564112 4.51439612,19.2297488 4.01279655,19.9785901 C3.42759706,20.8106361 3.67839684,22.2251142 4.34719627,23.3067739 L0.167199856,24.4716382 L0.167199856,43.7751041 L74.571136,43.7751041 L74.571136,39.9476928 L61.0279476,39.9476928 L61.0279476,39.8644882 Z M70.6419393,34.6225987 C70.8091392,34.8722125 70.8927391,35.1218263 71.059939,35.2882355 C71.2271388,35.5378493 71.3943387,35.7874631 71.5615386,36.1202814 C70.3911396,36.0370768 69.4715404,35.3714401 68.719141,34.2065758 C69.3879404,33.8737574 70.3075396,34.1233712 70.6419393,34.6225987 L70.6419393,34.6225987 Z M54.5071532,18.1480891 C56.9315511,18.564112 58.8543495,19.6457718 60.3591482,21.3098637 C60.6935479,21.642682 60.9443477,22.058705 61.2787474,22.474728 C57.2659508,21.9755004 55.8447521,21.3930682 53.587554,17.9816799 C53.9219537,17.9816799 54.1727535,18.0648845 54.5071532,18.1480891 L54.5071532,18.1480891 Z M52.7515547,12.3237675 L45.1439612,12.3237675 C45.8127607,11.7413353 46.3143602,10.992494 46.7323599,10.160448 L57.015151,10.160448 C56.1791518,11.6581307 54.757953,12.3237675 52.7515547,12.3237675 L52.7515547,12.3237675 Z M58.7707495,8.66276532 L51.1631561,8.66276532 C51.8319555,8.08033316 52.417155,7.33149181 52.8351546,6.41624127 L63.1179458,6.41624127 C62.2819465,7.91392397 60.8607477,8.66276532 58.7707495,8.66276532 L58.7707495,8.66276532 Z M59.355949,2.92164831 L69.5551403,2.92164831 C68.5519411,4.25292182 67.2143423,4.91855858 65.2915439,4.91855858 L57.6839505,4.91855858 C58.3527499,4.33612642 58.9379494,3.67048966 59.355949,2.92164831 L59.355949,2.92164831 Z M17.8903846,3.25446669 C18.1411844,2.92164831 18.5591841,2.58882994 18.9771837,2.25601156 C19.3115834,2.00639778 19.813183,1.75678399 20.3147826,1.6735794 C21.0671819,1.50717021 21.9031812,1.50717021 22.7391805,1.6735794 L19.9803828,3.33767129 C19.6459831,3.33767129 19.3115834,3.25446669 18.9771837,3.25446669 C18.4755841,3.25446669 18.0575845,3.25446669 17.7231848,3.33767129 C17.8067847,3.33767129 17.8067847,3.33767129 17.8903846,3.25446669 L17.8903846,3.25446669 Z M14.7135874,15.2359283 C14.7135874,15.1527237 14.7971873,15.0695191 14.8807872,15.0695191 L16.2183861,15.1527237 C17.8067847,15.0695191 19.4787833,14.4038823 19.6459831,12.7397904 C19.6459831,11.5749261 18.8099839,10.4932664 17.7231848,10.4932664 C17.1379853,10.4932664 16.3855859,10.9092894 15.6331866,11.4085169 C15.131587,11.7413353 14.7135874,11.9909491 14.4627876,11.9909491 C14.2955877,11.9909491 14.1283879,11.8245399 14.1283879,11.7413353 C14.1283879,11.7413353 14.1283879,11.7413353 14.1283879,11.6581307 L14.9643872,10.4932664 L14.2119878,9.99403883 C14.0447879,9.91083423 13.7939882,9.66122045 13.7939882,9.57801586 C13.7939882,9.49481126 13.8775881,9.41160667 13.8775881,9.32840207 C14.2119878,8.9955837 14.5463875,8.57956073 14.8807872,7.99712857 C15.131587,7.66431019 15.2151869,7.497901 15.5495866,7.497901 C15.8839864,7.497901 16.2183861,7.74751478 16.2183861,8.16353775 C16.2183861,8.41315154 16.4691859,8.57956073 16.8035856,8.57956073 C17.1379853,8.57956073 17.3051851,8.32994694 17.472385,8.16353775 C17.472385,8.16353775 18.2247844,7.497901 17.8067847,7.16508262 C17.3887851,6.83226425 15.5495866,7.58110559 16.0511862,5.91701371 L16.2183861,5.66739993 C16.3855859,5.41778614 17.3051851,4.75214939 19.0607836,4.75214939 C19.3951833,4.75214939 19.7295831,4.75214939 20.1475827,4.83535398 L20.3983825,4.83535398 L24.2439792,2.50562534 C24.2439792,2.58882994 24.3275791,2.67203453 24.3275791,2.67203453 L24.3275791,2.67203453 C24.494779,3.83689885 23.8259795,5.16817236 22.6555805,5.83380911 L22.153981,6.0834229 L22.4883807,7.83071938 C21.4851816,8.16353775 20.8163821,8.9123791 20.8163821,9.82762964 C20.8163821,10.160448 20.8999821,10.576471 20.983582,10.992494 C21.0671819,11.5749261 21.2343818,12.1573583 21.2343818,12.7397904 C21.2343818,14.5702915 18.7263839,15.7351558 16.6363857,15.6519512 L16.5527858,15.6519512 C16.4691859,15.6519512 15.131587,15.5687466 14.7971873,15.3191329 C14.7135874,15.4023375 14.7135874,15.3191329 14.7135874,15.2359283 L14.7135874,15.2359283 Z M5.18319555,20.8938407 C5.51759526,20.3946131 6.18639469,20.0617947 7.02239397,20.1449993 L7.6911934,20.2282039 L7.94199318,19.6457718 C8.02559311,19.4793626 8.10919304,19.3129534 8.19279297,19.2297488 C8.35999282,19.0633396 8.69439254,18.980135 9.02879225,18.980135 C9.94839146,18.980135 11.1187905,19.6457718 12.0383897,20.6442269 C12.3727894,20.9770453 12.7071891,21.4762728 12.9579889,21.8922958 C13.0415888,21.9755004 13.0415888,22.058705 13.1251887,22.1419096 C13.2087887,22.2251142 13.2923886,22.3915234 13.2923886,22.3915234 C13.2923886,22.474728 13.7939882,23.1403647 13.7939882,23.2235693 C14.1283879,22.8075464 14.4627876,22.3083188 14.7135874,21.8922958 L14.7135874,21.8090912 C14.6299874,21.642682 14.4627876,21.3930682 14.3791877,21.2266591 L14.2955877,21.1434545 L14.2955877,21.1434545 C14.2955877,21.1434545 14.2119878,21.0602499 14.2119878,20.9770453 C14.1283879,20.8106361 13.961188,20.5610223 13.8775881,20.4778177 L15.8839864,17.3160431 C16.3855859,17.3992477 16.8035856,17.3992477 17.0543854,17.3992477 L17.1379853,17.3992477 C19.9803828,17.3992477 22.9063803,15.7351558 22.9063803,13.0726088 L22.9063803,12.9894042 C22.9063803,12.2405629 22.7391805,11.5749261 22.6555805,10.992494 C22.5719806,10.576471 22.4883807,10.2436526 22.4883807,10.0772434 C22.4883807,9.74442505 22.9063803,9.41160667 23.4915798,9.41160667 L24.411179,9.41160667 L23.9931794,7.08187803 C25.2471783,6.16662749 26.0831776,4.5857402 25.9995777,3.1712621 C27.4207765,4.25292182 28.3403757,6.0834229 28.5075755,7.99712857 C28.5911755,8.57956073 28.4239756,9.32840207 28.2567757,10.160448 L28.1731758,10.4932664 L28.1731758,10.4932664 C27.8387761,11.8245399 27.3371765,13.239018 27.0863767,13.9046548 L26.835577,14.4870869 L27.4207765,14.8199053 C28.4239756,15.4023375 29.092775,15.8183604 29.092775,17.1496339 C29.092775,18.7305212 27.6715762,19.8953855 26.3339774,20.1449993 L24.411179,20.4778177 L25.9995777,21.5594774 C26.5011772,21.8922958 26.835577,22.474728 26.835577,23.0571601 C26.835577,24.0556153 25.9995777,24.8044566 24.9963785,24.8044566 L24.411179,24.8044566 L24.2439792,25.3036842 C23.6587797,27.1341853 23.0735802,28.0494358 21.0671819,28.2990496 L21.0671819,26.3853439 L21.0671819,25.553298 L20.983582,23.8060015 L19.7295831,25.0540704 C19.3115834,25.4700934 18.5591841,25.8029117 17.7231848,25.9693209 L17.7231848,24.4716382 L8.94519232,22.1419096 L5.85199498,22.9739555 C5.18319555,22.3083188 5.01599569,21.1434545 5.18319555,20.8938407 L5.18319555,20.8938407 Z M2.6751977,39.8644882 L9.02879225,38.2003963 L15.3823868,39.8644882 L2.6751977,39.8644882 L2.6751977,39.8644882 Z M16.2183861,38.5332147 L8.94519232,36.619509 L1.67199856,38.5332147 L1.67199856,25.6365026 L8.94519232,23.7227969 L16.2183861,25.6365026 L16.2183861,38.5332147 L16.2183861,38.5332147 Z M19.6459831,36.0370768 C18.9771837,36.9523274 18.8935838,38.2836009 19.3951833,39.8644882 L17.8067847,39.8644882 L17.8067847,27.5502082 C18.3919842,27.4670036 18.9771837,27.3005944 19.5623832,27.0509807 C19.5623832,27.5502082 19.4787833,28.0494358 19.3951833,28.5486634 C19.3951833,28.7150725 19.3115834,28.7982771 19.3115834,28.9646863 L19.1443836,29.8799369 L20.0639828,29.8799369 C21.4015816,29.8799369 22.4047808,29.6303231 23.24078,29.2975047 L23.24078,34.4561896 C23.24078,34.6225987 23.1571801,34.7058033 22.9899803,34.7058033 L22.7391805,34.7058033 C21.4015816,34.6225987 20.2311826,35.1218263 19.6459831,36.0370768 L19.6459831,36.0370768 Z M36.3659688,36.3698952 C35.7807693,37.035532 35.2791697,38.1171917 35.6135694,39.8644882 L26.1667775,39.8644882 C27.1699767,39.7812836 27.922376,39.5316698 28.4239756,39.0324422 C29.0091751,38.3668055 29.092775,37.5347595 29.092775,36.8691228 C29.092775,36.7859182 29.1763749,36.619509 29.6779745,36.3698952 L30.5139738,36.0370768 L30.0123742,35.2882355 C29.1763749,34.0401666 29.5943746,31.3776196 29.8451744,29.8799369 L29.9287743,29.8799369 C33.1055716,29.8799369 35.1955698,29.2143001 37.3691679,28.5486634 C37.9543674,28.3822542 38.5395669,28.215845 39.1247664,27.9662312 L39.1247664,27.9662312 C39.1247664,27.9662312 39.7935658,27.799822 40.6295651,27.5502082 L43.7227625,32.6256885 L43.7227625,32.7088931 C44.0571622,33.124916 44.0571622,33.4577344 43.4719627,34.0401666 L41.967164,35.7042585 L39.4591661,35.2050309 L39.4591661,35.2050309 C38.3723671,35.0386217 37.1183681,35.5378493 36.3659688,36.3698952 L36.3659688,36.3698952 Z M37.2019681,39.8644882 C36.9511683,38.7828285 37.0347682,37.9507825 37.5363678,37.3683504 C38.0379673,36.7859182 38.7067668,36.7027136 39.2919663,36.7027136 L42.2179638,37.2019412 L42.3015637,37.2019412 L42.7195633,37.2019412 L44.8095615,34.9554171 L44.8095615,34.9554171 C45.1439612,34.5393941 46.2307603,33.2913252 45.1439612,31.7104379 L42.3851636,27.2173898 C42.8031632,27.1341853 43.3047628,27.1341853 43.7227625,27.1341853 L43.7227625,27.1341853 C43.7227625,27.1341853 45.1439612,27.1341853 46.6487599,27.9662312 C46.8159598,28.3822542 47.1503595,28.9646863 47.4011593,29.6303231 C47.9863588,30.7951874 48.7387582,32.2928701 48.905958,32.8753023 C48.9895579,33.0417114 49.1567578,33.6241436 48.4879584,34.372985 L43.2211629,39.9476928 L37.2019681,39.9476928 L37.2019681,39.8644882 Z M55.2595526,39.8644882 L45.2275612,39.8644882 L49.4911575,35.3714401 C50.3271568,34.4561896 50.6615565,33.3745298 50.2435569,32.3760747 C50.076357,31.7936425 49.4911575,30.6287782 48.905958,29.3807093 C50.5779566,30.1295506 53.1695543,30.878392 58.4363498,31.294415 C59.1051493,31.3776196 59.2723491,31.5440288 59.355949,32.1264609 L59.6067488,34.372985 L56.8479512,34.9554171 C55.928352,35.1218263 55.1759526,35.7042585 54.8415529,36.619509 C54.5071532,37.6179641 54.6743531,38.7828285 55.2595526,39.8644882 L55.2595526,39.8644882 Z M56.3463516,37.2019412 C56.5135515,36.7859182 56.7643513,36.5363044 57.1823509,36.4530998 L61.2787474,35.5378493 L60.9443477,31.8768471 L60.9443477,31.7936425 C60.8607477,31.294415 60.526348,29.8799369 58.6035497,29.7135277 C51.246756,29.1310955 49.5747574,28.0494358 47.735559,26.8845715 L47.735559,26.8845715 L47.735559,26.8845715 L47.6519591,26.8013669 C45.7291607,25.553298 43.8063624,25.553298 43.6391625,25.553298 C41.5491643,25.553298 38.9575666,26.3853439 38.7067668,26.4685485 C38.0379673,26.6349577 37.4527678,26.8845715 36.8675683,27.0509807 C34.5267704,27.799822 32.603972,28.4654588 29.2599749,28.2990496 L28.6747754,28.2990496 L28.5075755,28.8814817 C28.4239756,29.2975047 27.4207765,33.0417114 28.3403757,35.3714401 C27.5043764,36.0370768 27.5043764,36.7027136 27.5043764,36.8691228 C27.5043764,37.7011687 27.3371765,37.8675779 27.2535766,37.9507825 C26.835577,38.3668055 25.581578,38.3668055 24.494779,38.3668055 L24.494779,38.3668055 L24.0767793,38.3668055 L23.8259795,38.6996239 C23.1571801,39.6148744 21.7359813,39.8644882 20.8163821,39.6148744 C20.3983825,38.3668055 20.3983825,37.4515549 20.8163821,36.8691228 C21.3179817,36.203486 22.2375809,36.1202814 22.6555805,36.1202814 L22.9063803,36.1202814 C23.9095795,36.1202814 24.6619788,35.2882355 24.6619788,34.372985 L24.6619788,27.799822 C24.9963785,27.383799 25.1635784,26.8013669 25.4143782,26.2189347 C27.0027768,25.9693209 28.2567757,24.6380474 28.2567757,22.9739555 C28.2567757,22.3083188 28.0895759,21.7258866 27.7551762,21.2266591 C29.2599749,20.4778177 30.5139738,19.0633396 30.5139738,17.1496339 C30.5139738,15.2359283 29.5107747,14.3206777 28.5911755,13.8214502 C28.8419752,13.0726088 29.2599749,11.8245399 29.5943746,10.4932664 L30.8483735,5.91701371 C31.433573,4.08651263 32.9383717,2.92164831 34.6939702,2.92164831 L57.4331507,2.92164831 C56.4299516,4.25292182 55.0923527,4.91855858 53.1695543,4.91855858 L39.542766,4.91855858 L38.7903667,6.41624127 L51.1631561,6.41624127 C50.1599569,7.91392397 48.7387582,8.66276532 46.7323599,8.66276532 L37.7871676,8.66276532 L37.0347682,10.160448 L44.9767614,10.160448 C43.9735622,11.6581307 42.6359634,12.3237675 40.6295651,12.3237675 L35.7807693,12.3237675 L35.0283699,13.8214502 L40.1279655,13.8214502 C40.2115655,13.9046548 40.2951654,14.1542685 40.2951654,14.7367007 C40.2951654,15.7351558 39.4591661,16.4839972 38.455967,16.4839972 C38.1215673,16.4839972 37.7871676,16.4007926 37.285568,16.1511788 C37.0347682,16.0679742 36.8675683,15.9847696 36.6167686,15.901565 L35.4463696,16.9832247 C35.6971694,17.0664293 35.8643692,17.1496339 36.115169,17.2328385 L36.115169,17.2328385 C37.1183681,17.6488615 37.7035676,17.8984753 38.455967,17.8984753 C39.3755662,17.8984753 40.2115655,17.4824523 40.8803649,16.9000202 C41.7163642,16.9832247 43.137563,17.0664293 44.5587617,17.1496339 C46.2307603,17.3160431 47.735559,17.3992477 48.5715583,17.4824523 C48.9895579,17.4824523 49.3239577,17.4824523 49.7419573,17.5656569 C50.4107567,17.5656569 51.0795561,17.6488615 51.6647556,17.6488615 C54.757953,22.6411372 56.3463516,23.3067739 62.3655465,24.0556153 C62.7835461,24.8044566 63.2015457,25.6365026 63.5359454,26.4685485 L63.5359454,36.203486 L63.5359454,36.2866906 L63.5359454,36.9523274 C63.2851457,37.2019412 62.3655465,37.6179641 62.1147467,37.7011687 L57.015151,39.7812836 C56.3463516,38.866033 56.0955518,37.9507825 56.3463516,37.2019412 L56.3463516,37.2019412 Z M14.6299874,27.6334128 L9.7811916,26.3853439 L9.7811916,27.9662312 L14.6299874,29.2143001 L14.6299874,27.6334128 Z M3.34399713,29.2143001 L8.19279297,27.9662312 L8.19279297,26.3853439 L3.34399713,27.6334128 L3.34399713,29.2143001 Z M3.34399713,32.3760747 L8.19279297,31.1280058 L8.19279297,29.5471185 L3.34399713,30.7951874 L3.34399713,32.3760747 Z M14.6299874,30.7951874 L9.7811916,29.5471185 L9.7811916,31.1280058 L14.6299874,32.3760747 L14.6299874,30.7951874 Z M14.6299874,33.956962 L9.7811916,32.7088931 L9.7811916,34.2897804 L14.6299874,35.5378493 L14.6299874,33.956962 Z M3.34399713,35.5378493 L8.19279297,34.2897804 L8.19279297,32.7088931 L3.34399713,33.956962 L3.34399713,35.5378493 Z M68.3011414,55.3405427 C67.8831417,58.8351357 66.9635425,59.3343632 64.4555447,59.3343632 L64.2883448,59.3343632 L64.2883448,48.1849476 L65.8767434,48.1849476 L65.8767434,47.6025155 L60.6935479,47.6025155 L60.6935479,48.1849476 L62.2819465,48.1849476 L62.2819465,59.4175678 L61.0279476,59.4175678 L56.4299516,47.2696971 L55.7611521,47.2696971 C55.7611521,47.2696971 51.9155554,58.2527035 51.9155554,58.3359081 C51.9155554,58.3359081 51.6647556,59.2511587 50.9959562,59.4175678 C50.4107567,59.4175678 50.4943566,59.1679541 50.4943566,59.0015449 L50.4943566,56.8382254 C50.4943566,56.2557933 50.4107567,55.0077243 49.9091571,54.4252922 C49.2403577,53.7596554 48.1535587,53.7596554 48.1535587,53.6764508 C48.1535587,53.6764508 50.9959562,53.0940187 50.9959562,50.4314717 C50.9959562,48.517766 49.6583574,47.6025155 47.4847592,47.5193109 L41.2983645,47.5193109 L41.2983645,48.101743 L42.8867632,48.101743 L42.8867632,59.3343632 L41.2983645,59.3343632 L41.2983645,59.9167954 L46.3979602,59.9167954 L46.3979602,59.3343632 L44.8095615,59.3343632 L44.8095615,53.9260646 L46.8995597,53.9260646 C50.5779566,54.258883 46.2307603,59.9167954 51.0795561,59.9167954 L54.0891536,59.9167954 L54.0891536,59.3343632 C53.9219537,59.3343632 52.8351546,59.3343632 52.7515547,58.5855219 C52.6679548,58.0030897 53.5039541,56.0061795 53.5039541,56.0061795 L57.6839505,56.0061795 C57.6839505,56.0061795 58.9379494,59.3343632 59.0215493,59.3343632 L57.6003505,59.3343632 L57.6003505,59.9167954 L68.8863409,59.9167954 L68.8863409,55.3405427 L68.3011414,55.3405427 L68.3011414,55.3405427 Z M46.8159598,53.3436325 L44.8095615,53.3436325 L44.8095615,48.1849476 L47.4011593,48.1849476 C48.905958,48.4345614 48.9895579,50.1818579 48.9895579,50.6810854 C48.9895579,52.0123589 48.4043584,53.3436325 46.8159598,53.3436325 L46.8159598,53.3436325 Z M53.8383538,55.5069519 L55.6775522,50.1818579 L57.6003505,55.5069519 L53.8383538,55.5069519 L53.8383538,55.5069519 Z M35.1119699,48.101743 C38.2887671,48.101743 39.542766,47.9353338 40.0443656,51.8459498 L40.3787653,51.8459498 L40.3787653,47.5193109 L27.6715762,47.5193109 L27.6715762,48.101743 L28.005976,48.101743 C28.4239756,48.101743 29.5107747,48.101743 29.5943746,49.1001981 L29.5943746,49.1001981 L29.5943746,56.2557933 L23.6587797,47.5193109 L20.3983825,47.5193109 L20.3983825,48.101743 L20.8999821,48.101743 C21.5687815,48.101743 22.4047808,48.101743 22.4883807,49.1001981 L22.4883807,58.2527035 C22.4883807,59.1679541 21.1507818,59.5007724 20.5655823,59.5007724 L20.5655823,59.5007724 L20.5655823,59.9167954 L24.9963785,59.9167954 L24.9963785,59.5007724 C24.411179,59.5007724 23.0735802,59.1679541 23.0735802,58.2527035 L23.0735802,50.1818579 C25.4143782,53.5100416 29.8451744,59.9167954 29.9287743,59.9167954 L30.1795741,59.9167954 L30.1795741,49.1001981 C30.263174,48.1849476 31.2663732,48.101743 31.7679727,48.101743 L33.1891715,48.101743 L33.1891715,59.3343632 L31.5171729,59.3343632 L31.5171729,59.9167954 L40.5459652,59.9167954 L40.5459652,55.3405427 L40.1279655,55.3405427 C39.7099659,58.8351357 38.7903667,59.3343632 36.2823688,59.3343632 L35.1119699,59.3343632 L35.1119699,53.9260646 L35.7807693,53.9260646 C36.8675683,53.9260646 37.5363678,54.5917014 37.7871676,56.505407 L38.2051672,56.505407 L38.2051672,50.8474946 L37.7871676,50.8474946 C37.7871676,50.8474946 37.7035676,53.2604279 35.7807693,53.2604279 L35.1955698,53.2604279 L35.1955698,48.101743 L35.1119699,48.101743 Z M74.487536,48.1849476 L74.487536,47.5193109 L69.3879404,47.5193109 L69.3879404,48.1849476 L70.9763391,48.1849476 L70.9763391,59.3343632 L69.3879404,59.3343632 L69.3879404,59.9167954 L74.487536,59.9167954 L74.487536,59.3343632 L72.8155375,59.3343632 L72.8155375,48.1849476 L74.487536,48.1849476 Z M14.2955877,53.2604279 L14.2955877,48.1849476 C17.472385,48.1849476 18.642784,48.0185384 19.2279835,51.9291544 L19.5623832,51.9291544 L19.5623832,47.6025155 L10.7843907,47.6025155 L10.7843907,48.1849476 L12.2891894,48.1849476 L12.2891894,59.4175678 L10.6171909,59.4175678 L10.6171909,60 L19.6459831,60 L19.6459831,55.4237473 L19.2279835,55.4237473 C18.8099839,58.9183403 17.8903846,59.4175678 15.3823868,59.4175678 L14.2119878,59.4175678 L14.2119878,54.0092692 L14.8807872,54.0092692 C15.9675863,54.0092692 16.6363857,54.674906 16.8871855,56.5886116 L17.3051851,56.5886116 L17.3051851,50.9306992 L16.8871855,50.9306992 C16.8871855,50.9306992 16.8035856,53.3436325 14.8807872,53.3436325 L14.2955877,53.3436325 L14.2955877,53.2604279 Z M10.7007908,53.4268371 L5.76839505,53.4268371 L5.76839505,54.0092692 L7.44039361,54.0092692 L7.44039361,58.0030897 C7.18959383,59.0015449 5.60119519,59.4175678 5.18319555,59.4175678 C2.00639828,59.4175678 2.25719806,54.8413152 2.25719806,53.5932462 C2.25719806,52.5115865 2.17359813,47.7689246 5.18319555,47.7689246 C7.35679368,47.7689246 8.44359275,49.8490395 8.86159239,51.7627452 L9.1959921,51.7627452 L9.1959921,47.2696971 C9.1959921,47.2696971 7.6911934,48.3513568 7.6911934,48.2681522 C7.6911934,48.2681522 7.02239397,47.2696971 5.09959562,47.2696971 C1.42119878,47.2696971 -2.7000624e-13,50.9306992 -2.7000624e-13,53.5100416 C-2.7000624e-13,55.8397703 1.08679907,59.9167954 5.09959562,59.9167954 C6.35359454,59.9167954 7.18959383,59.2511587 7.6911934,58.5855219 L9.27959203,59.8335908 L9.27959203,53.9260646 L10.6171909,53.9260646 L10.6171909,53.4268371 L10.7007908,53.4268371 Z" id="Logo"></path>
        </g>
    </g>
</svg>