<svg xmlns="http://www.w3.org/2000/svg" xmlns:xlink="http://www.w3.org/1999/xlink" width="98" height="54" viewBox="0 0 98 54"><defs><style>.a{fill:#fff;}.b{fill:url(#a);}.c{fill:url(#b);}.d{fill:url(#c);}.e{fill:url(#d);}.f,.g,.h{mix-blend-mode:multiply;isolation:isolate;}.f{fill:url(#f);}.g{fill:url(#g);}.h{fill:url(#h);}</style><linearGradient id="a" x1="1.068" y1="0.221" x2="0.132" y2="0.621" gradientUnits="objectBoundingBox"><stop offset="0.337" stop-color="#f7ac00"/><stop offset="0.847" stop-color="#f08800"/></linearGradient><linearGradient id="b" x1="0.5" y1="1" x2="0.5" gradientUnits="objectBoundingBox"><stop offset="0.006" stop-color="#ee7d00"/><stop offset="0.252" stop-color="#f29200"/><stop offset="0.779" stop-color="#f29200"/><stop offset="0.994" stop-color="#f49d00"/></linearGradient><linearGradient id="c" x1="0.202" y1="0.813" x2="0.719" y2="0.356" gradientUnits="objectBoundingBox"><stop offset="0.215" stop-color="#e9600f"/><stop offset="0.54" stop-color="#eb6b0a"/><stop offset="0.816" stop-color="#f08800"/></linearGradient><linearGradient id="d" x1="0.331" y1="0.678" x2="0.751" y2="0.142" gradientUnits="objectBoundingBox"><stop offset="0.515" stop-color="#f7ab00"/><stop offset="0.859" stop-color="#feca00"/></linearGradient><linearGradient id="f" x1="0.5" y1="1" x2="0.5" gradientUnits="objectBoundingBox"><stop offset="0.307" stop-color="#fff"/><stop offset="0.626" stop-color="#f2a8c7"/></linearGradient><linearGradient id="g" x1="0.5" y1="1" x2="0.5" gradientUnits="objectBoundingBox"><stop offset="0" stop-color="#fff"/><stop offset="0.294" stop-color="#f7c7dc"/></linearGradient><radialGradient id="h" cx="0.529" cy="0.464" r="0.523" gradientTransform="translate(-0.01) scale(1.02 1)" gradientUnits="objectBoundingBox"><stop offset="0.83" stop-color="#fff"/><stop offset="0.951" stop-color="#f7cadd"/></radialGradient></defs><g transform="translate(63 18)"><path d="M636.982,97.513v9.729l-6.385-8.61a2.866,2.866,0,0,0-2.123-1.118h-4l-.245,1.282.814.176c.411.091.614.509.61,1.491v12.051h3.493V102.7l6.588,8.885a2.626,2.626,0,0,0,1.916.931h2.822v-15Z" transform="translate(-624.232 -97.513)"/><path d="M653.32,97.513v9.729l-6.385-8.61a2.866,2.866,0,0,0-2.123-1.118h-4L640.57,98.8l.814.176c.41.091.614.509.61,1.491v12.051h3.493V102.7l6.587,8.885a2.631,2.631,0,0,0,1.917.931h2.821v-15Z" transform="translate(-621.812 -97.513)"/></g><path class="a" d="M624.63,108.134a27.5,27.5,0,1,1-27.5-27A27.253,27.253,0,0,1,624.63,108.134Z" transform="translate(-569.63 -81.133)"/><path class="b" d="M592.092,100.115a1.685,1.685,0,0,1,1.269.679l8.72,12.924L605.539,96.8H585.307v3.313Z" transform="translate(-566.983 -78.82)"/><path class="c" d="M617.239,93.017c1.965,5.385,1.15,11.429-2.182,15.471a16.9,16.9,0,0,1-5.766,4.262l-1.458,6.995a1.063,1.063,0,0,1-.995.8h-7.126a1.686,1.686,0,0,1-1.271-.682l-8.711-12.908-.633,3.066-2.014,9.751a1.056,1.056,0,0,1-.992.793h-.837c0,5.91,8.012,12.624,21.338,8.971A25.963,25.963,0,0,0,621,106.381,25.563,25.563,0,0,0,617.239,93.017Z" transform="translate(-566.992 -79.379)"/><path class="d" d="M571.377,109.668c0-9.7,6.791-12.866,13.939-12.866h2.41v3.313h-.4a1.057,1.057,0,0,0-.994.793l-.2.964h0l-3.587,17.334a.645.645,0,0,0,.663.8h4.39c0,5.91,8.012,12.624,21.338,8.971a26.773,26.773,0,0,1-12.1,2.872C581.614,131.845,571.377,119.529,571.377,109.668Z" transform="translate(-569.335 -78.82)"/><path class="e" d="M609.309,114.335a16.9,16.9,0,0,0,5.766-4.262c3.332-4.042,4.147-10.086,2.182-15.471a26.531,26.531,0,0,0-18.176-12.267c-5.2-.363-10.164,1.006-12.793,4.371-1.217,1.562-1.389,3.7-.846,6.143h20.6a1.7,1.7,0,0,1,1.272.683l4.354,6.662a2.283,2.283,0,0,1,.284,1.477Z" transform="translate(-567.01 -80.964)"/><path class="c" d="M600.774,82.379c-5.2-.363-10.164,1.006-12.793,4.371-1.217,1.562-1.389,3.7-.846,6.143H575.971c-1.178,0-1.041-.48-.085-1.6A26.644,26.644,0,0,1,596.2,81.984,27.126,27.126,0,0,1,600.774,82.379Z" transform="translate(-568.702 -81.007)"/><g transform="translate(9.62 23.052)"><path class="f" d="M581.45,118.554l3.587-17.334H582.4a1.08,1.08,0,0,0-1.013.81l-3.514,16.509a.65.65,0,0,0,.669.81h3.566A.645.645,0,0,1,581.45,118.554Z" transform="translate(-577.86 -101.22)"/></g><path class="g" d="M596.391,118.748h2.767a1.686,1.686,0,0,1-1.271-.682l-8.711-12.908-.633,3.066,6.4,9.75A1.951,1.951,0,0,0,596.391,118.748Z" transform="translate(-566.437 -77.587)"/><path class="h" d="M571.377,111.855c0-9.7,6.791-12.866,13.939-12.866h22.575l-3.457,16.917-8.72-12.924a1.685,1.685,0,0,0-1.269-.679h-7.119a1.057,1.057,0,0,0-.994.793l-.2.964h0l-3.587,17.334a.645.645,0,0,0,.663.8h5.227a1.056,1.056,0,0,0,.992-.793l2.014-9.751.633-3.066,8.711,12.908a1.686,1.686,0,0,0,1.271.682h7.126a1.062,1.062,0,0,0,.995-.8l1.458-6.995,2.638-12.664a2.284,2.284,0,0,0-.284-1.477l-4.354-6.662a1.7,1.7,0,0,0-1.272-.683H576.6c-1.178,0-1.041-.48-.085-1.6a26.644,26.644,0,0,1,20.317-9.308,27.129,27.129,0,0,1,4.571.395,26.531,26.531,0,0,1,18.176,12.267,25.565,25.565,0,0,1,3.759,13.364,25.963,25.963,0,0,1-14.406,23.15,26.774,26.774,0,0,1-12.1,2.872C581.614,134.032,571.377,121.716,571.377,111.855Z" transform="translate(-569.335 -81.007)"/></svg>