<svg xmlns="http://www.w3.org/2000/svg" width="259.764" height="44.484" viewBox="0 0 259.764 44.484">
  <g id="Group_1328" data-name="Group 1328" transform="translate(-278 -46)">
    <g id="Group_1319" data-name="Group 1319" transform="translate(278 46)">
      <g id="Group_1318" data-name="Group 1318" transform="translate(0 0)">
        <g id="Group_1320" data-name="Group 1320">
          <path id="Path_1510" data-name="Path 1510" d="M1039.173,19.631h6.367l-7.269,20a15.276,15.276,0,0,0,7.8-4.722,18.461,18.461,0,0,0,4.775-12.627,18.461,18.461,0,0,0-4.775-12.627,14.865,14.865,0,0,0-22.5,0,18.459,18.459,0,0,0-4.775,12.627,18.932,18.932,0,0,0,2.281,9.126,9.339,9.339,0,0,0,.743,1.22l4.775-13,9.338-.053-8.489,23.4a3.242,3.242,0,0,1-.637-.265,21.133,21.133,0,0,1-9.656-9.232,18.591,18.591,0,0,1-1.167-2.547,24.361,24.361,0,0,1-1.645-8.7,23.249,23.249,0,0,1,5.889-15.652,19.351,19.351,0,0,1,29.075,0,23.044,23.044,0,0,1,5.942,15.652,23.044,23.044,0,0,1-5.942,15.652,19.716,19.716,0,0,1-14.113,6.579,12.944,12.944,0,0,1-4.934-.69Z" transform="translate(-795.485)" fill="#039"/>
          <path id="Path_1511" data-name="Path 1511" d="M3.926,103.973c0,1.114.584,3.183,4.244,3.183,1.963,0,4.191-.477,4.191-2.547,0-1.539-1.486-1.963-3.608-2.441l-2.122-.477C3.4,100.949.318,100.206.318,95.856c0-2.228,1.167-6.1,7.693-6.1,6.155,0,7.8,3.979,7.8,6.42H11.778c-.106-.9-.424-2.971-4.085-2.971-1.592,0-3.5.584-3.5,2.387,0,1.539,1.273,1.857,2.122,2.069L11.2,98.827c2.759.69,5.253,1.751,5.253,5.359,0,6-6.155,6.526-7.906,6.526C1.273,110.711,0,106.52,0,104.079Z" transform="translate(0 -70.388)" fill="#039" fill-rule="evenodd"/>
          <rect id="Rectangle_632" data-name="Rectangle 632" width="4.191" height="19.949" transform="translate(19.631 19.79)" fill="#039"/>
          <path id="Path_1512" data-name="Path 1512" d="M134.667,99.164h8.383v10.77h-2.812l-.425-2.547a7.337,7.337,0,0,1-6.207,3.024c-4.828,0-9.179-3.449-9.179-10.4,0-5.412,3.024-10.558,9.762-10.505,6.155,0,8.542,3.979,8.807,6.685h-4.192a4.4,4.4,0,0,0-4.4-3.289c-2.971,0-5.73,2.069-5.73,7.162,0,5.412,2.971,6.844,5.783,6.844.9,0,3.979-.372,4.881-4.351h-4.669Z" transform="translate(-97.58 -70.195)" fill="#039" fill-rule="evenodd"/>
          <path id="Path_1513" data-name="Path 1513" d="M242.334,91.722h3.873v19.949h-4.191l-8.171-14.219h-.053v14.219h-3.873V91.722h4.4l7.958,13.9h.053Z" transform="translate(-180.311 -71.932)" fill="#039" fill-rule="evenodd"/>
          <path id="Path_1514" data-name="Path 1514" d="M322.558,107.34h7.375l1.273,4.085h4.563l-7.057-19.949h-4.828l-7.162,19.949h4.4Zm3.661-11.354h.053l2.494,7.905h-5.093Z" transform="translate(-248.385 -71.739)" fill="#039" fill-rule="evenodd"/>
          <path id="Path_1515" data-name="Path 1515" d="M421.488,108.063h9.975v3.608H417.3V91.722h4.191Z" transform="translate(-327.26 -71.932)" fill="#039" fill-rule="evenodd"/>
          <rect id="Rectangle_633" data-name="Rectangle 633" width="4.191" height="19.949" transform="translate(114.124 19.79)" fill="#039"/>
          <path id="Path_1516" data-name="Path 1516" d="M568.034,111.671h8.7c6.632,0,8.33-6.155,8.33-10.452,0-3.767-1.379-9.5-8.171-9.5h-8.86Zm4.085-16.5h4.032c1.8,0,4.616.477,4.616,6.367,0,3.29-1.167,6.685-4.563,6.685h-4.085Z" transform="translate(-445.474 -71.932)" fill="#039" fill-rule="evenodd"/>
          <path id="Path_1517" data-name="Path 1517" d="M677.069,104.668c0,5.253-3.183,7.481-8.224,7.481a8.466,8.466,0,0,1-6.367-2.44,7.217,7.217,0,0,1-1.539-4.828V91.722h4.244v12.893c0,2.759,1.592,3.979,3.555,3.979,2.865,0,4.032-1.38,4.032-3.82V91.722h4.244Z" transform="translate(-518.325 -71.932)" fill="#039" fill-rule="evenodd"/>
          <path id="Path_1518" data-name="Path 1518" d="M766.351,91.722h3.873v19.949h-4.191l-8.171-14.219h-.053v14.219h-3.873V91.722h4.4l7.958,13.9h.053Z" transform="translate(-591.265 -71.932)" fill="#039" fill-rule="evenodd"/>
          <path id="Path_1519" data-name="Path 1519" d="M846.768,107.34h7.375l1.327,4.085h4.563l-7.057-19.949h-4.828l-7.163,19.949h4.4Zm3.661-11.354h.053l2.494,7.905h-5.093Z" transform="translate(-659.532 -71.739)" fill="#039" fill-rule="evenodd"/>
        </g>
      </g>
    </g>
  </g>
</svg>
