<?xml version="1.0" encoding="utf-8"?>
<!-- Generator: Adobe Illustrator 23.1.0, SVG Export Plug-In . SVG Version: 6.00 Build 0)  -->
<svg version="1.1" id="Layer_1" xmlns="http://www.w3.org/2000/svg" xmlns:xlink="http://www.w3.org/1999/xlink" x="0px" y="0px"
	 viewBox="0 0 77 59.24" style="enable-background:new 0 0 77 59.24;" xml:space="preserve">
<style type="text/css">
	.st0{fill-rule:evenodd;clip-rule:evenodd;fill:#0066B3;}
</style>
<g>
	<path class="st0" d="M0,41.9h3.16v9.32c0,3.08,1.84,4.93,4.25,4.93c2.44,0,4.26-1.85,4.26-4.93V41.9h3.16v9.99
		c0,3.88-2.91,7.2-7.42,7.2c-4.51,0-7.42-3.31-7.42-7.2V41.9z"/>
	<polygon class="st0" points="32.4,58.72 32.4,41.9 29.27,41.9 29.27,52.4 20.08,41.9 18.38,41.9 18.38,58.7 21.5,58.7 21.5,48.24 
		30.67,58.72 	"/>
	<rect x="36.14" y="41.9" class="st0" width="3.25" height="16.8"/>
	<path class="st0" d="M60.22,50.3c0-4.94-4.04-8.94-9.03-8.94c-4.99,0-9.03,4-9.03,8.94c0,4.94,4.04,8.94,9.03,8.94
		c1.9,0,3.66-0.58,5.11-1.57l1.47,1.47l2.06-2.06l-1.42-1.42C59.54,54.17,60.22,52.31,60.22,50.3 M51.19,56.43
		c-3.24,0-5.86-2.75-5.86-6.13c0-3.39,2.62-6.13,5.86-6.13c3.24,0,5.86,2.75,5.86,6.13c0,1.16-0.31,2.24-0.84,3.16l-1.94-1.94
		l-2.06,2.06l1.98,1.98C53.32,56.11,52.29,56.43,51.19,56.43z"/>
	<path class="st0" d="M73.54,58.7H77l-7.16-16.8h-2.18l-7.34,16.8h3.37l1.32-3.16h7.24L73.54,58.7z M66.17,52.77l2.52-6.04
		l2.45,6.04H66.17z"/>
	<path class="st0" d="M26.76,33.34H7.96l2.16-3.84h11.05c0.48,0.45,0.99,0.87,1.51,1.28C23.91,31.73,25.28,32.62,26.76,33.34"/>
	<path class="st0" d="M30.9,5.46c-0.61,0.51-4.49,8.06,0.29,14.71c1.35,1.87,3.32,4.16,5.62,5.5c2.4,1.39,4,1.75,5.03,2.02
		c1.81,0.49,4.62,0.7,8.24,0.89c2.93,0.16,8.92,0.19,9.97,0.19l1.12,0.01l2.57,4.89c0,0-8.71,0.04-12.76-0.18
		c-4.56-0.24-8.09-0.5-10.38-1.12c-1.3-0.35-3.31-0.8-6.34-2.55c-2.91-1.69-5.89-4.64-7.43-7.1c-3.73-5.94-2.79-9.92-2.3-11.88
		c1.06-1.48,2.44-2.89,3.92-3.94C29.52,6.12,30.19,5.81,30.9,5.46"/>
	<path class="st0" d="M36.94,33.03c-1.11,0.21-2.19,0.31-3.19,0.31c-3.68-0.01-7.15-1.73-10.02-3.94
		c-3.44-2.64-5.95-6.32-6.58-10.33c-0.09-0.46-0.14-0.94-0.2-1.6c-0.26-2.74,0.14-6.19,2.06-9.49c1.66-2.85,4.14-5.32,8.23-7.03
		c1.7-0.71,5.37-1.52,9.6-0.39c4.45,1.23,8.35,3.99,10.85,7.62c0,0-3.84-4.99-10.41-5.57c-0.3-0.03-0.59-0.04-0.89-0.05
		c-3.25-0.06-6.35,1.05-8.94,2.91c-1.65,1.18-3.11,2.65-4.23,4.36c-0.06,0.09-0.26,0.39-0.52,0.85l-0.08,0.14
		c-0.06,0.1-0.11,0.21-0.17,0.32c-0.8,1.52-1.91,4.26-1.95,7.71c-0.06,4.45,1.94,7.65,2.68,8.73c0.02,0.03,1.87,1.28,4.68,1.81
		c1.14,0.22,2.21,0.25,3.12,0.23c0.77,0.62,1.58,1.19,2.42,1.68C34.76,32.1,35.93,32.64,36.94,33.03"/>
	<path class="st0" d="M44.1,7c2.42,1.44,5.91,5.95,6.07,10.06c0.26,3.92-1.71,7.74-3.02,9.61c-2.13-0.15-3.74-0.34-4.85-0.65
		c-0.35-0.09-0.77-0.2-1.26-0.35c1.39-1.28,3.46-3.7,4.51-7.41C47,13.09,45.57,9.57,44.1,7"/>
</g>
</svg>
