<svg xmlns="http://www.w3.org/2000/svg" viewBox="0 0 1000 1107.9">
<defs><linearGradient id="l" x1="0" y1="0" x2="0" y2="1"><stop offset="0" stop-color="#ffffff"/><stop offset="1" stop-color="#e9f0fa"/></linearGradient></defs>
<g fill="url(#l)" stroke="#9fbbe0" stroke-width="1.1" stroke-linejoin="round"><path d="M107.8,398.1 143.0,360.5 175.9,354.0 240.8,380.5 264.7,401.4 282.3,397.5 273.8,406.8 318.5,426.5 327.5,437.6 334.2,433.4 334.4,441.0 366.8,459.9 371.1,471.8 380.3,472.2 374.0,477.6 383.1,479.8 389.9,498.0 392.4,486.8 391.7,503.7 400.9,505.4 414.0,523.1 417.0,519.8 421.2,531.4 426.2,528.9 425.4,545.4 416.1,552.1 446.1,568.9 448.1,558.0 451.4,563.3 460.6,559.6 462.7,569.4 511.5,567.9 531.1,563.1 534.9,557.4 523.6,554.9 520.6,543.4 532.8,517.7 520.9,455.3 526.7,414.7 539.9,392.0 531.2,373.5 538.5,366.1 524.2,353.2 526.5,323.2 531.2,349.2 528.3,329.0 544.4,338.3 536.9,316.3 568.8,317.2 554.5,301.2 558.0,293.9 533.2,249.2 551.6,241.2 548.0,228.7 532.0,233.5 528.2,216.0 539.5,169.1 533.0,162.2 535.0,130.2 529.0,114.5 533.5,68.1 510.4,60.1 507.8,69.2 442.2,79.7 438.8,62.5 426.2,59.4 413.5,69.0 411.2,90.5 348.3,113.3 346.0,107.4 345.1,114.6 291.6,144.5 277.2,124.7 258.6,135.2 258.1,163.2 221.2,184.5 213.7,180.6 206.5,186.2 210.1,197.0 200.9,257.6 172.4,261.6 159.6,276.7 135.4,258.7 120.1,266.6 121.3,280.7 136.2,291.8 111.2,361.8 109.6,392.4 107.8,398.1Z"/><path d="M807.7,356.7 568.8,317.2 536.9,316.3 544.4,338.3 528.3,329.0 531.2,349.2 526.5,323.2 524.2,353.2 538.5,366.1 531.2,373.5 539.9,392.0 526.7,414.7 520.9,455.3 532.8,517.7 520.6,543.4 523.6,554.9 534.9,557.4 531.1,563.1 540.1,562.7 547.6,573.8 561.4,568.1 567.9,576.2 579.4,571.6 627.5,582.5 686.4,581.1 723.8,568.0 750.3,566.3 749.1,558.5 755.8,556.9 783.2,561.4 794.2,553.3 797.4,564.5 806.5,555.0 809.6,566.4 835.1,537.5 850.8,531.3 845.7,516.9 832.5,510.9 817.6,525.3 794.9,514.8 778.3,523.1 771.7,514.9 781.6,496.9 782.3,478.8 772.0,478.5 753.9,492.3 745.1,481.8 709.1,469.8 736.9,423.0 786.7,364.1 807.7,356.7Z"/><path d="M946.4,579.8 924.3,585.8 910.7,567.5 898.6,576.9 890.7,574.7 876.1,549.1 851.8,546.5 850.8,531.3 835.1,537.5 809.6,566.4 806.5,555.0 797.4,564.5 794.2,553.3 783.2,561.4 755.8,556.9 749.1,558.5 750.3,566.3 723.8,568.0 686.4,581.1 627.5,582.5 579.4,571.6 567.9,576.2 561.4,568.1 547.6,573.8 540.1,562.7 531.1,563.1 511.5,567.9 503.3,583.5 506.7,593.4 522.3,598.3 522.6,610.0 546.8,614.0 557.4,644.7 600.6,695.6 729.3,742.8 794.2,764.0 900.4,755.3 899.2,741.1 907.2,740.3 897.3,723.3 886.6,718.5 888.1,710.3 899.3,713.0 897.3,704.2 920.2,700.4 921.1,674.1 921.5,645.5 932.2,647.9 942.6,617.8 930.5,608.7 936.8,608.7 946.4,579.8Z"/><path d="M675.8,1032.0 695.4,1048.6 710.8,1042.4 709.6,1024.0 746.0,1003.8 737.7,988.6 727.1,994.6 664.3,880.4 671.3,868.1 667.0,863.8 729.3,742.8 600.6,695.6 557.4,644.7 546.8,614.0 522.6,610.0 522.3,598.3 506.7,593.4 495.3,601.5 500.6,610.5 485.4,619.3 476.3,641.5 496.5,662.7 481.3,681.0 489.6,677.7 507.3,717.4 491.1,735.5 506.0,736.4 502.5,746.8 489.7,751.2 502.6,750.0 487.2,790.7 491.1,804.8 476.7,822.5 469.0,808.1 462.4,814.3 469.4,826.6 489.0,828.9 483.1,868.9 474.8,867.5 477.8,881.4 503.0,923.3 511.9,910.2 541.0,933.9 549.7,919.6 558.4,919.8 615.2,962.4 621.8,967.6 611.8,981.2 675.8,1032.0Z"/><path d="M164.3,702.7 167.8,721.0 184.6,718.1 188.2,726.7 214.3,707.0 274.4,783.7 284.1,790.0 296.4,778.0 311.7,796.2 289.9,814.9 333.3,854.0 337.6,841.0 361.5,848.8 368.5,832.2 443.5,873.0 470.9,880.8 477.8,881.4 474.8,867.5 483.1,868.9 489.0,828.9 469.4,826.6 462.4,814.3 469.0,808.1 476.7,822.5 491.1,804.8 487.2,790.7 502.6,750.0 489.7,751.2 502.5,746.8 506.0,736.4 491.1,735.5 507.3,717.4 489.6,677.7 481.3,681.0 496.5,662.7 476.3,641.5 485.4,619.3 500.6,610.5 495.3,601.5 506.7,593.4 503.3,583.5 511.5,567.9 462.7,569.4 460.6,559.6 451.4,563.3 448.1,558.0 446.1,568.9 416.1,552.1 381.2,570.0 387.7,600.8 383.5,639.5 368.4,651.8 370.4,656.9 363.0,661.0 358.0,656.3 357.4,673.4 326.2,681.6 335.8,687.9 331.5,699.1 302.6,685.9 292.1,705.3 278.9,698.7 293.1,667.9 275.1,687.7 285.4,669.4 260.6,678.2 262.5,673.1 252.5,674.9 243.4,684.8 247.4,675.8 235.9,683.3 231.8,678.5 228.2,693.9 209.7,682.5 211.2,694.3 177.8,700.1 174.6,688.5 174.7,700.4 164.3,702.7Z"/><path d="M95.4,704.1 139.8,699.4 162.0,690.3 164.3,702.7 174.7,700.4 174.6,688.5 177.8,700.1 211.2,694.3 209.7,682.5 228.2,693.9 231.8,678.5 235.9,683.3 247.4,675.8 243.4,684.8 252.5,674.9 262.5,673.1 260.6,678.2 285.4,669.4 275.1,687.7 293.1,667.9 278.9,698.7 292.1,705.3 302.6,685.9 331.5,699.1 335.8,687.9 326.2,681.6 357.4,673.4 358.0,656.3 363.0,661.0 370.4,656.9 368.4,651.8 383.5,639.5 387.7,600.8 381.2,570.0 416.1,552.1 425.4,545.4 426.2,528.9 421.2,531.4 417.0,519.8 414.0,523.1 400.9,505.4 391.7,503.7 392.4,486.8 389.9,498.0 383.1,479.8 374.0,477.6 380.3,472.2 371.1,471.8 366.8,459.9 334.4,441.0 334.2,433.4 327.5,437.6 318.5,426.5 273.8,406.8 282.3,397.5 264.7,401.4 240.8,380.5 175.9,354.0 143.0,360.5 107.8,398.1 95.5,421.3 116.2,414.4 199.6,455.9 223.7,458.1 231.4,470.0 222.2,476.1 227.5,497.3 248.7,502.3 247.8,510.8 219.3,529.4 63.6,540.1 65.8,582.1 69.5,629.6 55.0,632.9 53.6,638.9 58.5,656.3 76.3,656.9 95.4,704.1Z"/></g>
</svg>